<svg xmlns="http://www.w3.org/2000/svg" viewBox="0 0 80 50">
  <defs>
    <linearGradient id="bear" x1="0" y1="0" x2="0" y2="1">
      <stop offset="0%" stop-color="#1B2E4A"/>
      <stop offset="100%" stop-color="#0F1D32"/>
    </linearGradient>
  </defs>
  <!-- Bear silhouette - walking profile facing left -->
  <path d="
    M 18,22
    Q 16,20 14,20
    L 12,18
    Q 11,16 10,16
    Q 8.5,16 8.5,17.5
    L 9,19
    Q 8,19 7,20
    Q 5,22 5,24
    L 6,26
    Q 5,27 4,28
    Q 3,29 3.5,30
    Q 4,31 5.5,30.5
    L 8,28
    Q 10,30 12,32
    L 14,34
    Q 14,36 14,38
    Q 13.5,40 13,42
    Q 12.5,43 13,44
    Q 13.5,45 15,45
    L 18,45
    Q 19.5,45 19.5,43.5
    Q 19.5,42 19,40
    L 19,37
    Q 22,39 26,40
    L 28,41
    Q 28,43 27.5,45
    Q 27,46.5 28,47
    Q 29,47.5 31,47.5
    L 34,47.5
    Q 35.5,47.5 35.5,46
    Q 35.5,44.5 35,43
    L 34,40
    Q 38,39 42,38
    Q 48,36 52,33
    L 52,36
    Q 52,39 51.5,41
    Q 51,43 51.5,44
    Q 52,45 54,45
    L 57,45
    Q 58.5,45 58.5,43.5
    Q 58.5,42 58,40
    L 57,37
    Q 58,35 60,34
    L 62,34
    Q 63,36 63,38
    Q 63,40 62.5,42
    Q 62,43.5 62.5,44.5
    Q 63,45.5 65,45.5
    L 68,45.5
    Q 69.5,45.5 69.5,44
    Q 69.5,42.5 69,41
    L 68,38
    Q 68,36 69,34
    Q 72,30 72,26
    Q 72,22 68,18
    Q 64,14 58,12
    Q 52,10 44,10
    Q 36,10 28,12
    Q 22,14 18,18
    Z
  " fill="url(#bear)"/>
</svg>
